HIERARCHY
ROOT Hips
{
	OFFSET 0.000000 100.481300 0.000000
	CHANNELS 6 Xposition Yposition Zposition Xrotation Yrotation Zrotation 
	JOINT Spine
	{
		OFFSET -0.279200 12.230698 -2.892100
		CHANNELS 3 Xrotation Yrotation Zrotation
		JOINT Spine1
		{
			OFFSET -0.232667 10.192268 -1.242267
			CHANNELS 3 Xrotation Yrotation Zrotation
			JOINT Spine1_split
			{
				OFFSET -0.232667 10.192268 -1.242267
				CHANNELS 3 Xrotation Yrotation Zrotation
				JOINT Spine2
				{
					OFFSET -0.232667 10.192268 -1.242267
					CHANNELS 3 Xrotation Yrotation Zrotation
					JOINT Neck
					{
						OFFSET -0.418800 17.814194 8.416900
						CHANNELS 3 Xrotation Yrotation Zrotation
						JOINT Head
						{
							OFFSET 0.000000 7.031097 3.806800
							CHANNELS 3 Xrotation Yrotation Zrotation
							JOINT HeadTop_End
							{
								OFFSET 0.000000 24.646606 12.978600
								CHANNELS 3 Xrotation Yrotation Zrotation
								End Site
								{
									OFFSET 0.000000 0.000000 0.000000
								}
							}
						}
					}
					JOINT LeftShoulder
					{
						OFFSET 8.476499 7.247704 -3.868750
						CHANNELS 3 Xrotation Yrotation Zrotation
						JOINT LeftShoulder_split
						{
							OFFSET 8.476499 7.247704 -3.868750
							CHANNELS 3 Xrotation Yrotation Zrotation
							JOINT LeftArm
							{
								OFFSET 9.308998 -2.777710 0.208600
								CHANNELS 3 Xrotation Yrotation Zrotation
								JOINT LeftForeArm
								{
									OFFSET 29.972298 0.000000 0.000000
									CHANNELS 3 Xrotation Yrotation Zrotation
									JOINT LeftHand
									{
										OFFSET 26.026505 0.000000 0.000000
										CHANNELS 3 Xrotation Yrotation Zrotation
										JOINT LeftHandThumb1
										{
											OFFSET 12.240501 -7.147949 9.207150
											CHANNELS 3 Xrotation Yrotation Zrotation
											JOINT LeftHandThumb2
											{
												OFFSET 4.138618 -2.389435 2.389433
												CHANNELS 3 Xrotation Yrotation Zrotation
												JOINT LeftHandThumb3
												{
													OFFSET 2.726913 -1.574387 1.574386
													CHANNELS 3 Xrotation Yrotation Zrotation
													JOINT LeftHandThumb4
													{
														OFFSET 3.941010 -2.275345 2.275342
														CHANNELS 3 Xrotation Yrotation Zrotation
														End Site
														{
															OFFSET 0.000000 0.000000 0.000000
														}
													}
												}
											}
										}
										JOINT LeftHandIndex1
										{
											OFFSET 24.424698 -1.985611 5.953459
											CHANNELS 3 Xrotation Yrotation Zrotation
											JOINT LeftHandIndex2
											{
												OFFSET 6.426697 0.000000 0.000000
												CHANNELS 3 Xrotation Yrotation Zrotation
												JOINT LeftHandIndex3
												{
													OFFSET 5.337898 0.000000 0.000000
													CHANNELS 3 Xrotation Yrotation Zrotation
													JOINT LeftHandIndex4
													{
														OFFSET 4.409401 0.000000 0.000000
														CHANNELS 3 Xrotation Yrotation Zrotation
														End Site
														{
															OFFSET 0.000000 0.000000 0.000000
														}
													}
												}
											}
										}
										JOINT LeftHandMiddle1
										{
											OFFSET 23.810104 0.000000 0.000000
											CHANNELS 3 Xrotation Yrotation Zrotation
											JOINT LeftHandMiddle2
											{
												OFFSET 7.176498 0.000000 0.000000
												CHANNELS 3 Xrotation Yrotation Zrotation
												JOINT LeftHandMiddle3
												{
													OFFSET 6.774902 0.000000 0.000000
													CHANNELS 3 Xrotation Yrotation Zrotation
													JOINT LeftHandMiddle4
													{
														OFFSET 5.403328 0.000000 0.000000
														CHANNELS 3 Xrotation Yrotation Zrotation
														End Site
														{
															OFFSET 0.000000 0.000000 0.000000
														}
													}
												}
											}
										}
										JOINT LeftHandRing1
										{
											OFFSET 22.908401 -0.839279 -6.020567
											CHANNELS 3 Xrotation Yrotation Zrotation
											JOINT LeftHandRing2
											{
												OFFSET 6.337502 0.000000 0.000000
												CHANNELS 3 Xrotation Yrotation Zrotation
												JOINT LeftHandRing3
												{
													OFFSET 5.779297 0.000000 0.000000
													CHANNELS 3 Xrotation Yrotation Zrotation
													JOINT LeftHandRing4
													{
														OFFSET 4.965698 0.000000 0.000000
														CHANNELS 3 Xrotation Yrotation Zrotation
														End Site
														{
															OFFSET 0.000000 0.000000 0.000000
														}
													}
												}
											}
										}
										JOINT LeftHandPinky1
										{
											OFFSET 20.037003 -1.530319 -10.950146
											CHANNELS 3 Xrotation Yrotation Zrotation
											JOINT LeftHandPinky2
											{
												OFFSET 5.254700 0.000000 0.000000
												CHANNELS 3 Xrotation Yrotation Zrotation
												JOINT LeftHandPinky3
												{
													OFFSET 4.810204 0.000000 0.000000
													CHANNELS 3 Xrotation Yrotation Zrotation
													JOINT LeftHandPinky4
													{
														OFFSET 3.647202 0.000000 0.000000
														CHANNELS 3 Xrotation Yrotation Zrotation
														End Site
														{
															OFFSET 0.000000 0.000000 0.000000
														}
													}
												}
											}
										}
									}
								}
							}
						}
					}
					JOINT RightShoulder
					{
						OFFSET -7.570500 7.247704 -3.868750
						CHANNELS 3 Xrotation Yrotation Zrotation
						JOINT RightShoulder_split
						{
							OFFSET -7.570500 7.247704 -3.868750
							CHANNELS 3 Xrotation Yrotation Zrotation
							JOINT RightArm
							{
								OFFSET -9.308998 -2.777710 0.208500
								CHANNELS 3 Xrotation Yrotation Zrotation
								JOINT RightForeArm
								{
									OFFSET -29.972300 0.000000 0.000000
									CHANNELS 3 Xrotation Yrotation Zrotation
									JOINT RightHand
									{
										OFFSET -26.026505 0.000000 0.000000
										CHANNELS 3 Xrotation Yrotation Zrotation
										JOINT RightHandThumb1
										{
											OFFSET -12.240601 -7.148026 9.207092
											CHANNELS 3 Xrotation Yrotation Zrotation
											JOINT RightHandThumb2
											{
												OFFSET -4.138618 -2.389435 2.389433
												CHANNELS 3 Xrotation Yrotation Zrotation
												JOINT RightHandThumb3
												{
													OFFSET -2.726974 -1.574417 1.574421
													CHANNELS 3 Xrotation Yrotation Zrotation
													JOINT RightHandThumb4
													{
														OFFSET -3.941010 -2.275345 2.275343
														CHANNELS 3 Xrotation Yrotation Zrotation
														End Site
														{
															OFFSET 0.000000 0.000000 0.000000
														}
													}
												}
											}
										}
										JOINT RightHandIndex1
										{
											OFFSET -24.424698 -1.985657 5.953444
											CHANNELS 3 Xrotation Yrotation Zrotation
											JOINT RightHandIndex2
											{
												OFFSET -6.426697 0.000000 0.000000
												CHANNELS 3 Xrotation Yrotation Zrotation
												JOINT RightHandIndex3
												{
													OFFSET -5.337898 0.000000 0.000000
													CHANNELS 3 Xrotation Yrotation Zrotation
													JOINT RightHandIndex4
													{
														OFFSET -4.409401 0.000000 0.000000
														CHANNELS 3 Xrotation Yrotation Zrotation
														End Site
														{
															OFFSET 0.000000 0.000000 0.000000
														}
													}
												}
											}
										}
										JOINT RightHandMiddle1
										{
											OFFSET -23.810097 0.000000 0.000000
											CHANNELS 3 Xrotation Yrotation Zrotation
											JOINT RightHandMiddle2
											{
												OFFSET -7.176498 0.000000 0.000000
												CHANNELS 3 Xrotation Yrotation Zrotation
												JOINT RightHandMiddle3
												{
													OFFSET -6.774902 0.000000 0.000000
													CHANNELS 3 Xrotation Yrotation Zrotation
													JOINT RightHandMiddle4
													{
														OFFSET -5.403328 0.000000 0.000000
														CHANNELS 3 Xrotation Yrotation Zrotation
														End Site
														{
															OFFSET 0.000000 0.000000 0.000000
														}
													}
												}
											}
										}
										JOINT RightHandRing1
										{
											OFFSET -22.908302 -0.839325 -6.020576
											CHANNELS 3 Xrotation Yrotation Zrotation
											JOINT RightHandRing2
											{
												OFFSET -6.337502 0.000000 0.000000
												CHANNELS 3 Xrotation Yrotation Zrotation
												JOINT RightHandRing3
												{
													OFFSET -5.779297 0.000000 0.000000
													CHANNELS 3 Xrotation Yrotation Zrotation
													JOINT RightHandRing4
													{
														OFFSET -4.965698 0.000000 0.000000
														CHANNELS 3 Xrotation Yrotation Zrotation
														End Site
														{
															OFFSET 0.000000 0.000000 0.000000
														}
													}
												}
											}
										}
										JOINT RightHandPinky1
										{
											OFFSET -20.037003 -1.530334 -10.950259
											CHANNELS 3 Xrotation Yrotation Zrotation
											JOINT RightHandPinky2
											{
												OFFSET -5.254700 0.000000 0.000000
												CHANNELS 3 Xrotation Yrotation Zrotation
												JOINT RightHandPinky3
												{
													OFFSET -4.810204 0.000000 0.000000
													CHANNELS 3 Xrotation Yrotation Zrotation
													JOINT RightHandPinky4
													{
														OFFSET -3.647202 0.000000 0.000000
														CHANNELS 3 Xrotation Yrotation Zrotation
														End Site
														{
															OFFSET 0.000000 0.000000 0.000000
														}
													}
												}
											}
										}
									}
								}
							}
						}
					}
				}
			}
		}
	}
	JOINT LeftUpLeg
	{
		OFFSET 15.427100 -6.655098 0.678600
		CHANNELS 3 Xrotation Yrotation Zrotation
		JOINT LeftLeg
		{
			OFFSET 4.081073 -39.591068 13.024000
			CHANNELS 3 Xrotation Yrotation Zrotation
			JOINT LeftFoot
			{
				OFFSET -4.081074 -37.707932 -15.979700
				CHANNELS 3 Xrotation Yrotation Zrotation
				JOINT LeftToeBase
				{
					OFFSET 5.346399 -15.068900 20.645000
					CHANNELS 3 Xrotation Yrotation Zrotation
					JOINT LeftToe_End
					{
						OFFSET 2.754700 0.931300 11.300900
						CHANNELS 3 Xrotation Yrotation Zrotation
						End Site
						{
							OFFSET 0.000000 0.000000 0.000000
						}
					}
				}
			}
		}
	}
	JOINT RightUpLeg
	{
		OFFSET -15.569500 -6.655098 0.678600
		CHANNELS 3 Xrotation Yrotation Zrotation
		JOINT RightLeg
		{
			OFFSET -4.081825 -39.591045 13.023800
			CHANNELS 3 Xrotation Yrotation Zrotation
			JOINT RightFoot
			{
				OFFSET 4.081824 -37.707954 -15.979600
				CHANNELS 3 Xrotation Yrotation Zrotation
				JOINT RightToeBase
				{
					OFFSET -5.346400 -15.068900 20.645000
					CHANNELS 3 Xrotation Yrotation Zrotation
					JOINT RightToe_End
					{
						OFFSET -2.754700 0.931300 11.300900
						CHANNELS 3 Xrotation Yrotation Zrotation
						End Site
						{
							OFFSET 0.000000 0.000000 0.000000
						}
					}
				}
			}
		}
	}
}
MOTION
Frames: 4
Frame Time: 0.016667
-5.160308 72.516006 3.319011 7.162847 -58.886517 1.511881 5.120609 10.451923 -0.701050 6.079589 5.798316 -0.521033 0.000000 0.000000 0.000000 5.085127 16.136079 1.189171 6.289642 5.421245 -4.908951 -11.393626 17.889736 5.359091 0.000001 0.000000 -0.000001 3.544250 4.756010 -11.623018 0.000000 0.000000 0.000000 -54.038835 -33.116418 -50.381545 0.000251 -81.882343 0.000282 -58.768402 25.992616 38.870340 -14.557449 10.837973 12.229974 0.749581 -4.257719 13.305537 -10.783751 -23.179372 -4.132421 -0.000001 -0.000000 0.000001 -0.809543 2.578178 -31.496447 3.095899 5.163766 -61.866966 0.503786 2.378637 -23.913119 0.000001 -0.000001 -0.000001 -2.430834 1.729204 -41.460935 2.952339 5.084736 -60.259931 1.321762 3.707978 -39.227839 -0.000000 0.000001 -0.000000 -6.054117 -0.166589 -49.857584 3.046254 5.137021 -61.313952 0.351700 2.001103 -19.935102 0.000001 0.000000 -0.000001 -8.298298 -6.522678 -38.520143 2.848778 5.024390 -59.084415 0.876795 3.084708 -31.727513 0.000000 0.000000 0.000001 -14.733702 2.115965 -4.463087 0.000000 0.000000 0.000000 72.337550 138.834031 -52.653522 -0.000001 29.080729 -0.000003 -49.752464 -7.371310 -31.498736 8.377132 -4.904124 11.022003 21.620197 -18.183878 -18.379211 -0.702901 -49.821217 -32.535183 0.000000 -0.000000 0.000002 0.558916 -4.406580 25.436678 1.653053 -3.560335 49.799094 1.737702 -3.630065 51.149217 -0.000000 0.000001 0.000000 10.969816 -12.875553 52.800835 6.387584 -4.324404 111.833672 0.247353 -1.499126 18.739119 -0.000000 -0.000000 -0.000000 3.705086 -7.151331 57.622447 5.328221 -4.608677 98.293423 1.627347 -3.538508 49.383999 -0.000000 -0.000000 -0.000002 0.474809 -5.172985 58.987679 3.194316 -4.421934 71.674154 1.771390 -3.656887 51.679547 -0.000000 -0.000001 0.000000 -52.978058 -18.103953 34.945748 35.131338 -10.841268 -1.769424 23.251938 1.239565 -10.192869 0.000000 -0.000009 -0.000004 0.000002 0.000001 -0.000001 -47.591034 -0.133842 -21.088356 59.684495 5.596330 2.161570 -6.504372 -3.072469 11.764258 -10.353143 -0.000007 -0.000001 -0.000000 0.000001 -0.000000 
-5.438447 73.775627 -0.496791 8.653326 -59.850967 2.064179 5.196324 10.378463 0.069844 6.266319 5.663357 -0.193641 0.000000 0.000000 0.000000 5.219009 15.988001 1.524878 6.117327 5.473301 -4.875339 -11.907631 18.231201 4.903859 -0.000000 -0.000001 -0.000001 3.410891 4.228985 -11.245753 0.000000 0.000000 0.000000 -53.679720 -32.244579 -50.209588 0.000208 -82.808271 0.000222 -57.769972 25.806936 38.829076 -14.557447 10.837973 12.229973 0.749579 -4.257717 13.305534 -10.783749 -23.179372 -4.132419 0.000001 -0.000001 0.000001 -0.809543 2.578177 -31.496441 3.095900 5.163767 -61.866972 0.503787 2.378637 -23.913121 -0.000000 0.000000 -0.000003 -2.430833 1.729203 -41.460928 2.952338 5.084735 -60.259931 1.321763 3.707978 -39.227832 0.000000 -0.000001 0.000001 -6.054117 -0.166589 -49.857577 3.046253 5.137021 -61.313946 0.351702 2.001103 -19.935104 -0.000000 0.000000 -0.000003 -8.298297 -6.522677 -38.520146 2.848777 5.024388 -59.084408 0.876795 3.084707 -31.727513 0.000000 0.000000 -0.000003 -14.874835 3.395343 -4.575094 0.000000 0.000000 0.000000 74.932428 137.222066 -55.175142 0.000019 32.460665 -0.000015 -50.128602 -7.281806 -32.986071 8.377133 -4.904124 11.022005 21.620197 -18.183879 -18.379209 -0.702903 -49.821220 -32.535183 0.000000 -0.000000 0.000004 0.558915 -4.406581 25.436678 1.653053 -3.560335 49.799090 1.737705 -3.630066 51.149217 -0.000001 -0.000000 -0.000001 10.969815 -12.875553 52.800835 6.387583 -4.324403 111.833672 0.247352 -1.499128 18.739119 -0.000001 0.000000 0.000000 3.705087 -7.151330 57.622447 5.328222 -4.608677 98.293423 1.627346 -3.538509 49.383992 0.000000 0.000000 -0.000001 0.474810 -5.172985 58.987679 3.194317 -4.421934 71.674154 1.771390 -3.656888 51.679547 0.000000 -0.000000 -0.000000 -56.078609 -17.781154 31.639270 43.323057 -7.776564 -1.607165 15.849794 0.934252 -9.540337 0.000007 -0.000001 -0.000002 -0.000000 0.000002 -0.000000 -50.058323 -2.336923 -17.521882 58.248728 4.848839 2.117174 -1.697833 -2.420250 12.464588 -9.522986 -0.000012 0.000008 0.000000 0.000002 0.000000 
-5.702189 75.412193 -4.720469 11.030303 -61.318542 3.339761 5.154176 10.489107 0.693537 6.308407 5.733788 0.124733 0.000000 0.000000 0.000000 5.204269 16.033843 1.859610 6.010208 5.497583 -4.746236 -12.496676 18.583681 4.459503 -0.000001 0.000000 0.000001 3.342831 3.885600 -11.068018 0.000000 0.000000 0.000000 -52.875797 -31.812398 -49.380628 0.000027 -83.745346 -0.000011 -57.807477 26.117726 39.098988 -14.557447 10.837970 12.229974 0.749580 -4.257718 13.305535 -10.783752 -23.179374 -4.132420 0.000001 -0.000001 0.000000 -0.809543 2.578178 -31.496444 3.095900 5.163768 -61.866966 0.503786 2.378638 -23.913119 -0.000000 0.000000 -0.000003 -2.430833 1.729204 -41.460928 2.952339 5.084733 -60.259925 1.321762 3.707977 -39.227836 -0.000000 0.000001 -0.000001 -6.054117 -0.166589 -49.857584 3.046252 5.137022 -61.313952 0.351701 2.001104 -19.935106 -0.000000 -0.000000 0.000001 -8.298297 -6.522678 -38.520143 2.848778 5.024389 -59.084408 0.876795 3.084707 -31.727520 -0.000000 -0.000000 -0.000003 -14.973894 4.793927 -4.441298 0.000000 0.000000 0.000000 77.819241 135.933209 -57.695701 -0.000002 35.490042 -0.000010 -50.675195 -7.755472 -34.661728 8.377131 -4.904124 11.022003 21.620195 -18.183878 -18.379207 -0.702897 -49.821220 -32.535183 -0.000002 0.000001 -0.000003 0.558917 -4.406579 25.436680 1.653054 -3.560335 49.799087 1.737704 -3.630065 51.149217 -0.000000 -0.000000 0.000001 10.969816 -12.875554 52.800835 6.387584 -4.324404 111.833672 0.247352 -1.499127 18.739117 -0.000000 -0.000000 -0.000000 3.705086 -7.151331 57.622447 5.328222 -4.608677 98.293423 1.627347 -3.538509 49.383996 0.000001 0.000000 -0.000001 0.474810 -5.172985 58.987679 3.194316 -4.421934 71.674154 1.771390 -3.656887 51.679554 -0.000000 0.000001 -0.000000 -58.581125 -16.397081 27.949889 49.884481 -5.437328 -1.406032 9.509432 0.736078 -9.405888 -0.790463 -0.000008 0.000001 0.000001 0.000002 0.000001 -51.680415 -5.865521 -12.120330 56.188401 1.756974 0.621123 -0.194617 0.428624 9.577617 -9.252491 -0.000005 -0.000006 0.000000 0.000000 0.000000 
-6.002855 77.346657 -9.350811 14.333131 -63.217417 5.669168 5.046431 10.694060 0.966500 6.230978 6.000047 0.369758 0.000000 0.000000 0.000000 5.078934 16.267957 2.126721 5.962562 5.490731 -4.561728 -13.126856 18.849124 4.125945 -0.000000 -0.000000 -0.000000 3.352119 3.739656 -11.139684 0.000000 0.000000 0.000000 -51.775890 -31.735422 -48.041519 0.000658 -84.599686 0.000667 -58.433873 26.314977 39.463515 -14.557447 10.837973 12.229972 0.749578 -4.257716 13.305535 -10.783751 -23.179369 -4.132420 -0.000001 0.000000 -0.000001 -0.809543 2.578178 -31.496447 3.095900 5.163766 -61.866972 0.503786 2.378637 -23.913122 -0.000002 -0.000001 -0.000001 -2.430833 1.729204 -41.460928 2.952338 5.084733 -60.259925 1.321762 3.707979 -39.227836 0.000001 0.000000 0.000001 -6.054117 -0.166589 -49.857577 3.046251 5.137021 -61.313946 0.351700 2.001103 -19.935107 0.000001 0.000001 0.000003 -8.298299 -6.522677 -38.520143 2.848779 5.024389 -59.084408 0.876795 3.084707 -31.727516 -0.000000 -0.000000 0.000001 -15.042385 6.381670 -4.115087 0.000000 0.000000 0.000000 80.832953 134.974414 -60.173338 -0.000004 38.062056 0.000017 -50.934818 -8.384242 -36.240359 8.377132 -4.904124 11.022003 21.620195 -18.183881 -18.379213 -0.702902 -49.821217 -32.535176 -0.000002 0.000001 -0.000000 0.558917 -4.406579 25.436676 1.653054 -3.560335 49.799090 1.737703 -3.630067 51.149217 0.000001 -0.000000 -0.000000 10.969817 -12.875553 52.800835 6.387583 -4.324401 111.833665 0.247352 -1.499125 18.739114 -0.000000 0.000001 -0.000001 3.705086 -7.151330 57.622447 5.328221 -4.608678 98.293430 1.627346 -3.538509 49.383996 0.000000 -0.000000 -0.000001 0.474809 -5.172985 58.987672 3.194317 -4.421933 71.674154 1.771391 -3.656888 51.679547 -0.000001 -0.000000 -0.000001 -60.645994 -13.690546 24.149124 53.884896 -4.105319 -1.148670 5.312738 0.603860 -10.000045 -0.643212 -0.000032 0.000004 0.000000 0.000001 0.000000 -52.924093 -8.506435 -7.495006 53.669506 0.854643 -0.381689 0.157519 2.032051 12.828240 -8.663533 0.000007 0.000005 -0.000000 0.000000 -0.000000 
